<?xml version="1.0" encoding="utf-8"?>
<!-- Generator: Adobe Illustrator 15.1.0, SVG Export Plug-In . SVG Version: 6.00 Build 0)  -->
<!DOCTYPE svg PUBLIC "-//W3C//DTD SVG 1.1//EN" "http://www.w3.org/Graphics/SVG/1.1/DTD/svg11.dtd">
<svg version="1.1" id="Layer_2" xmlns="http://www.w3.org/2000/svg" xmlns:xlink="http://www.w3.org/1999/xlink" x="0px" y="0px"
	 width="299px" height="50px" viewBox="0 0 299 50" enable-background="new 0 0 299 50" xml:space="preserve">
<path fill="#FFFFFF" d="M7.72,30.09L0,6.44h3.3l3.68,11.65c1.02,3.19,1.89,6.07,2.52,8.84h0.07c0.67-2.74,1.65-5.72,2.7-8.81
	l4-11.69h3.26l-8.46,23.65H7.72z"/>
<path fill="#FFFFFF" d="M32.04,26.02c0,1.47,0.07,2.91,0.28,4.07h-2.8l-0.25-2.14h-0.11c-0.94,1.33-2.77,2.53-5.19,2.53
	c-3.44,0-5.19-2.42-5.19-4.88c0-4.11,3.65-6.35,10.21-6.32v-0.35c0-1.4-0.39-3.93-3.86-3.93c-1.58,0-3.23,0.49-4.42,1.26L20,14.23
	c1.4-0.91,3.44-1.51,5.58-1.51c5.19,0,6.45,3.54,6.45,6.95V26.02z M29.06,21.42c-3.37-0.07-7.2,0.53-7.2,3.82
	c0,2,1.34,2.95,2.91,2.95c2.21,0,3.62-1.4,4.11-2.84c0.1-0.32,0.18-0.67,0.18-0.98V21.42z"/>
<path fill="#FFFFFF" d="M48.39,29.45c-0.81,0.42-2.6,1.02-4.88,1.02c-5.12,0-8.46-3.51-8.46-8.7c0-5.23,3.58-9.02,9.12-9.02
	c1.82,0,3.44,0.46,4.28,0.88l-0.7,2.39c-0.74-0.42-1.9-0.81-3.58-0.81c-3.9,0-6,2.88-6,6.42c0,3.93,2.53,6.35,5.9,6.35
	c1.75,0,2.91-0.45,3.79-0.84L48.39,29.45z"/>
<path fill="#FFFFFF" d="M63.19,26.02c0,1.47,0.07,2.91,0.28,4.07h-2.81l-0.25-2.14h-0.1c-0.95,1.33-2.77,2.53-5.19,2.53
	c-3.44,0-5.19-2.42-5.19-4.88c0-4.11,3.65-6.35,10.21-6.32v-0.35c0-1.4-0.39-3.93-3.86-3.93c-1.58,0-3.23,0.49-4.42,1.26l-0.7-2.03
	c1.4-0.91,3.44-1.51,5.58-1.51c5.2,0,6.46,3.54,6.46,6.95V26.02z M60.21,21.42c-3.37-0.07-7.19,0.53-7.19,3.82
	c0,2,1.33,2.95,2.91,2.95c2.21,0,3.61-1.4,4.11-2.84c0.1-0.32,0.17-0.67,0.17-0.98V21.42z"/>
<path fill="#FFFFFF" d="M71.02,9.03v4.07h4.42v2.35h-4.42v9.16c0,2.1,0.6,3.3,2.31,3.3c0.84,0,1.33-0.07,1.79-0.21l0.14,2.31
	c-0.6,0.25-1.54,0.46-2.74,0.46c-1.44,0-2.6-0.49-3.33-1.33C68.32,28.22,68,26.72,68,24.72v-9.27h-2.63V13.1H68V9.98L71.02,9.03z"/>
<path fill="#FFFFFF" d="M81.62,8.33c0.03,1.05-0.74,1.9-1.97,1.9c-1.09,0-1.86-0.84-1.86-1.9c0-1.09,0.81-1.93,1.93-1.93
	C80.88,6.4,81.62,7.24,81.62,8.33 M78.17,13.1h3.09v16.98h-3.09V13.1z"/>
<path fill="#FFFFFF" d="M101.02,21.45c0,6.28-4.35,9.02-8.46,9.02c-4.6,0-8.14-3.37-8.14-8.74c0-5.68,3.72-9.02,8.42-9.02
	C97.72,12.72,101.02,16.26,101.02,21.45 M87.54,21.63c0,3.72,2.14,6.53,5.16,6.53c2.95,0,5.16-2.77,5.16-6.6
	c0-2.88-1.44-6.53-5.09-6.53C89.12,15.03,87.54,18.4,87.54,21.63"/>
<path fill="#FFFFFF" d="M104.18,17.7c0-1.75-0.04-3.19-0.14-4.6h2.74l0.18,2.8h0.07c0.84-1.61,2.81-3.19,5.61-3.19
	c2.35,0,6,1.4,6,7.23v10.14h-3.09v-9.79c0-2.74-1.02-5.02-3.93-5.02c-2.04,0-3.62,1.44-4.14,3.16c-0.14,0.39-0.21,0.91-0.21,1.44
	v10.21h-3.09V17.7z"/>
<path fill="#FFFFFF" d="M123.02,6.75c1.54-0.32,3.75-0.49,5.86-0.49c3.26,0,5.37,0.6,6.84,1.93c1.2,1.05,1.86,2.67,1.86,4.49
	c0,3.12-1.96,5.19-4.45,6.04v0.11c1.82,0.63,2.91,2.32,3.47,4.77c0.77,3.3,1.33,5.58,1.83,6.49h-3.16c-0.38-0.7-0.91-2.7-1.58-5.65
	c-0.7-3.26-1.97-4.49-4.74-4.6h-2.88v10.25h-3.05V6.75z M126.07,17.52h3.12c3.26,0,5.34-1.79,5.34-4.49c0-3.05-2.21-4.39-5.44-4.42
	c-1.48,0-2.53,0.14-3.02,0.28V17.52z"/>
<path fill="#FFFFFF" d="M142.91,22.16c0.07,4.17,2.74,5.9,5.82,5.9c2.21,0,3.54-0.39,4.7-0.88l0.53,2.21
	c-1.09,0.49-2.95,1.09-5.65,1.09c-5.23,0-8.35-3.47-8.35-8.6c0-5.12,3.02-9.16,7.97-9.16c5.54,0,7.02,4.88,7.02,8
	c0,0.63-0.07,1.12-0.1,1.44H142.91z M151.96,19.95c0.04-1.97-0.81-5.02-4.28-5.02c-3.12,0-4.49,2.88-4.74,5.02H151.96z"/>
<path fill="#FFFFFF" d="M158.03,17.7c0-1.75-0.03-3.19-0.14-4.6h2.74l0.18,2.8h0.07c0.85-1.61,2.81-3.19,5.62-3.19
	c2.35,0,6,1.4,6,7.23v10.14h-3.09v-9.79c0-2.74-1.02-5.02-3.93-5.02c-2.04,0-3.62,1.44-4.14,3.16c-0.14,0.39-0.21,0.91-0.21,1.44
	v10.21h-3.09V17.7z"/>
<path fill="#FFFFFF" d="M180.35,9.03v4.07h4.42v2.35h-4.42v9.16c0,2.1,0.6,3.3,2.32,3.3c0.84,0,1.33-0.07,1.79-0.21l0.14,2.31
	c-0.6,0.25-1.54,0.46-2.74,0.46c-1.44,0-2.6-0.49-3.33-1.33c-0.88-0.92-1.19-2.42-1.19-4.42v-9.27h-2.63V13.1h2.63V9.98L180.35,9.03
	z"/>
<path fill="#FFFFFF" d="M199.44,26.02c0,1.47,0.07,2.91,0.28,4.07h-2.81l-0.25-2.14h-0.1c-0.95,1.33-2.77,2.53-5.2,2.53
	c-3.44,0-5.19-2.42-5.19-4.88c0-4.11,3.65-6.35,10.21-6.32v-0.35c0-1.4-0.38-3.93-3.86-3.93c-1.58,0-3.23,0.49-4.42,1.26l-0.7-2.03
	c1.41-0.91,3.44-1.51,5.58-1.51c5.19,0,6.46,3.54,6.46,6.95V26.02z M196.45,21.42c-3.37-0.07-7.19,0.53-7.19,3.82
	c0,2,1.33,2.95,2.91,2.95c2.21,0,3.62-1.4,4.11-2.84c0.1-0.32,0.18-0.67,0.18-0.98V21.42z"/>
<rect x="203.68" y="5.17" fill="#FFFFFF" width="3.09" height="24.91"/>
<path fill="#FFFFFF" d="M210.8,26.93c0.91,0.6,2.52,1.23,4.07,1.23c2.25,0,3.3-1.12,3.3-2.53c0-1.48-0.88-2.28-3.16-3.13
	c-3.05-1.09-4.49-2.77-4.49-4.81c0-2.74,2.21-4.98,5.86-4.98c1.72,0,3.23,0.49,4.17,1.05l-0.77,2.25c-0.67-0.42-1.9-0.98-3.48-0.98
	c-1.82,0-2.84,1.05-2.84,2.31c0,1.41,1.02,2.04,3.23,2.88c2.95,1.12,4.46,2.59,4.46,5.12c0,2.98-2.32,5.12-6.35,5.12
	c-1.86,0-3.58-0.49-4.77-1.19L210.8,26.93z"/>
<path fill="#FFFFFF" d="M225.29,30.47c-1.19,0-2.03-0.95-2.03-2.21c0-1.3,0.88-2.21,2.1-2.21c1.23,0,2.07,0.91,2.07,2.21
	c0,1.26-0.81,2.21-2.11,2.21H225.29z"/>
<path fill="#FFFFFF" d="M242.63,29.45c-0.81,0.42-2.6,1.02-4.88,1.02c-5.12,0-8.45-3.51-8.45-8.7c0-5.23,3.58-9.02,9.12-9.02
	c1.83,0,3.44,0.46,4.28,0.88l-0.7,2.39c-0.74-0.42-1.89-0.81-3.58-0.81c-3.89,0-6,2.88-6,6.42c0,3.93,2.53,6.35,5.89,6.35
	c1.75,0,2.91-0.45,3.79-0.84L242.63,29.45z"/>
<path fill="#FFFFFF" d="M260.66,21.45c0,6.28-4.35,9.02-8.46,9.02c-4.6,0-8.14-3.37-8.14-8.74c0-5.68,3.72-9.02,8.42-9.02
	C257.37,12.72,260.66,16.26,260.66,21.45 M247.19,21.63c0,3.72,2.14,6.53,5.16,6.53c2.95,0,5.16-2.77,5.16-6.6
	c0-2.88-1.44-6.53-5.09-6.53C248.77,15.03,247.19,18.4,247.19,21.63"/>
<path fill="#FFFFFF" d="M263.82,17.7c0-1.75-0.04-3.19-0.14-4.6h2.7l0.14,2.74h0.11c0.95-1.62,2.53-3.12,5.33-3.12
	c2.32,0,4.07,1.4,4.81,3.4h0.07c0.53-0.95,1.19-1.68,1.89-2.21c1.02-0.77,2.14-1.19,3.75-1.19c2.25,0,5.58,1.47,5.58,7.37v10h-3.02
	v-9.61c0-3.27-1.19-5.23-3.68-5.23c-1.75,0-3.12,1.3-3.65,2.81c-0.14,0.42-0.25,0.98-0.25,1.54v10.49h-3.02V19.91
	c0-2.7-1.19-4.66-3.54-4.66c-1.93,0-3.33,1.54-3.83,3.09c-0.18,0.46-0.24,0.98-0.24,1.51v10.25h-3.02V17.7z"/>
<polygon fill="#FFFFFF" points="293.69,12.71 293.69,13.16 292.36,13.16 292.36,16.66 291.83,16.66 291.83,13.16 290.5,13.16 
	290.5,12.71 "/>
<path fill="#FFFFFF" d="M298.45,16.66l-0.19-2.69c-0.02-0.23-0.03-0.52-0.04-0.84h-0.03c-0.1,0.23-0.22,0.64-0.32,0.94l-0.92,2.53
	h-0.6l-0.93-2.6c-0.07-0.25-0.22-0.62-0.29-0.87h-0.03c0,0.26-0.01,0.54-0.03,0.84l-0.18,2.69h-0.53l0.32-3.95h0.77l0.93,2.53
	c0.12,0.29,0.19,0.56,0.28,0.83h0.03c0.09-0.28,0.19-0.6,0.25-0.8l0.93-2.56h0.78l0.35,3.95H298.45z"/>
<path fill="#FFFFFF" d="M4.98,38.36c0.47-0.1,1.04-0.16,1.73-0.16c0.96,0,1.69,0.24,2.13,0.68c0.38,0.37,0.62,0.9,0.62,1.58
	c0,0.7-0.2,1.21-0.56,1.61c-0.52,0.6-1.39,0.91-2.38,0.91c-0.36,0-0.69-0.01-0.98-0.1v3.46H4.98V38.36z M5.55,42.39
	c0.29,0.08,0.63,0.12,1.03,0.12c1.44,0,2.32-0.71,2.32-1.99c0-1.27-0.92-1.83-2.21-1.83c-0.53,0-0.92,0.05-1.14,0.1V42.39z"/>
<path fill="#FFFFFF" d="M14.21,44.98c0,0.46,0.02,0.92,0.08,1.37h-0.52l-0.08-0.83h-0.04c-0.28,0.44-0.91,0.96-1.83,0.96
	c-1.15,0-1.69-0.81-1.69-1.58c0-1.33,1.18-2.13,3.51-2.11v-0.14c0-0.58-0.11-1.71-1.48-1.7c-0.5,0-1.03,0.13-1.44,0.43l-0.18-0.42
	c0.52-0.35,1.16-0.49,1.68-0.49c1.67,0,1.98,1.25,1.98,2.28V44.98z M13.65,43.27c-1.26-0.04-2.92,0.16-2.92,1.54
	c0,0.83,0.55,1.2,1.15,1.2c0.96,0,1.5-0.59,1.7-1.15c0.04-0.12,0.06-0.24,0.06-0.35V43.27z"/>
<path fill="#FFFFFF" d="M16.08,42.32c0-0.57-0.02-1.17-0.05-1.73h0.53l0.02,1.16h0.02c0.25-0.72,0.85-1.29,1.64-1.29
	c0.07,0,0.16,0.01,0.23,0.02v0.55c-0.08-0.02-0.17-0.02-0.27-0.02c-0.79,0-1.35,0.68-1.51,1.61c-0.02,0.17-0.05,0.36-0.05,0.55v3.18
	h-0.56V42.32z"/>
<path fill="#FFFFFF" d="M20.73,39.32v1.27h1.64v0.46h-1.64v3.74c0,0.73,0.23,1.2,0.84,1.2c0.3,0,0.52-0.05,0.66-0.1l0.07,0.45
	c-0.19,0.08-0.46,0.14-0.8,0.14c-0.42,0-0.77-0.14-0.98-0.42c-0.26-0.3-0.36-0.78-0.36-1.37v-3.64h-0.97v-0.46h0.97v-1.05
	L20.73,39.32z"/>
<path fill="#FFFFFF" d="M31.19,43.41c0,2.16-1.48,3.07-2.76,3.07c-1.49,0-2.64-1.16-2.64-2.96c0-1.98,1.3-3.06,2.72-3.06
	C30.11,40.46,31.19,41.65,31.19,43.41 M26.37,43.48c0,1.44,0.92,2.52,2.1,2.52c1.2,0,2.15-1.08,2.15-2.55c0-1.06-0.6-2.52-2.11-2.52
	C27.04,40.93,26.37,42.25,26.37,43.48"/>
<path fill="#FFFFFF" d="M32.69,46.35v-5.3h-0.83v-0.46h0.83v-0.31c0-0.89,0.17-1.61,0.64-2.08c0.35-0.35,0.83-0.5,1.27-0.5
	c0.37,0,0.7,0.1,0.86,0.19l-0.18,0.46c-0.16-0.08-0.38-0.17-0.73-0.17c-1.07,0-1.29,0.98-1.29,2.09v0.32h1.55v0.46h-1.55v5.3H32.69z
	"/>
<path fill="#FFFFFF" d="M39.22,39.32v1.27h1.64v0.46h-1.64v3.74c0,0.73,0.23,1.2,0.84,1.2c0.3,0,0.52-0.05,0.66-0.1l0.07,0.45
	c-0.19,0.08-0.46,0.14-0.8,0.14c-0.42,0-0.77-0.14-0.98-0.42c-0.26-0.3-0.36-0.78-0.36-1.37v-3.64h-0.97v-0.46h0.97v-1.05
	L39.22,39.32z"/>
<path fill="#FFFFFF" d="M42.13,37.83h0.56v3.79h0.02c0.17-0.32,0.44-0.63,0.79-0.84c0.32-0.2,0.72-0.32,1.16-0.32
	c0.54,0,1.99,0.28,1.99,2.41v3.48H46.1v-3.41c0-1.04-0.41-1.99-1.58-1.99c-0.82,0-1.5,0.59-1.74,1.31
	c-0.06,0.17-0.08,0.34-0.08,0.56v3.53h-0.56V37.83z"/>
<path fill="#FFFFFF" d="M48.65,43.41c0,1.85,1.01,2.57,2.19,2.57c0.84,0,1.27-0.17,1.6-0.32l0.14,0.46
	c-0.22,0.12-0.8,0.37-1.81,0.37c-1.66,0-2.69-1.21-2.69-2.9c0-1.92,1.1-3.12,2.59-3.12c1.88,0,2.24,1.77,2.24,2.6
	c0,0.16,0,0.25-0.02,0.35H48.65z M52.32,42.96c0.01-0.8-0.32-2.03-1.71-2.03c-1.27,0-1.82,1.14-1.92,2.03H52.32z"/>
<polygon fill="#FFFFFF" points="58.37,38.27 58.37,41.5 61.79,41.5 61.79,38.27 63.26,38.27 63.26,46.35 61.79,46.35 61.79,42.79 
	58.37,42.79 58.37,46.35 56.89,46.35 56.89,38.27 "/>
<path fill="#FFFFFF" d="M70.45,43.38c0,2.15-1.51,3.11-3,3.11c-1.65,0-2.93-1.14-2.93-3.01c0-1.92,1.26-3.09,3.02-3.09
	C69.29,40.38,70.45,41.6,70.45,43.38 M66.05,43.43c0,1.13,0.55,1.98,1.45,1.98c0.84,0,1.43-0.83,1.43-2c0-0.91-0.41-1.96-1.42-1.96
	C66.47,41.46,66.05,42.46,66.05,43.43"/>
<path fill="#FFFFFF" d="M71.67,42.25c0-0.67-0.01-1.24-0.05-1.74h1.27l0.06,0.86h0.04c0.29-0.46,0.82-0.99,1.8-0.99
	c0.77,0,1.37,0.43,1.62,1.08h0.02c0.2-0.32,0.44-0.56,0.72-0.73c0.32-0.23,0.7-0.35,1.17-0.35c0.97,0,1.96,0.66,1.96,2.53v3.44
	h-1.44v-3.23c0-0.97-0.34-1.55-1.04-1.55c-0.5,0-0.88,0.36-1.03,0.78c-0.04,0.14-0.07,0.32-0.07,0.49v3.5h-1.44v-3.38
	c0-0.82-0.32-1.39-1.01-1.39c-0.55,0-0.92,0.43-1.06,0.84c-0.06,0.14-0.08,0.31-0.08,0.48v3.46h-1.44V42.25z"/>
<path fill="#FFFFFF" d="M82.89,43.84c0.04,1.06,0.86,1.51,1.8,1.51c0.68,0,1.18-0.1,1.62-0.26l0.21,1.02
	c-0.5,0.2-1.2,0.36-2.04,0.36c-1.9,0-3.01-1.16-3.01-2.95c0-1.62,0.98-3.14,2.85-3.14c1.9,0,2.52,1.56,2.52,2.84
	c0,0.28-0.02,0.49-0.05,0.62H82.89z M85.45,42.81c0.01-0.54-0.23-1.43-1.21-1.43c-0.91,0-1.29,0.83-1.35,1.43H85.45z"/>
<path fill="#FFFFFF" d="M89.71,44.06l-0.7,2.29h-1.52l2.59-8.08h1.88l2.63,8.08h-1.58l-0.73-2.29H89.71z M92.03,42.94l-0.64-1.99
	c-0.16-0.49-0.29-1.04-0.41-1.51h-0.02c-0.12,0.47-0.24,1.03-0.38,1.51l-0.62,1.99H92.03z"/>
<path fill="#FFFFFF" d="M96.23,40.51l0.61,2.65c0.13,0.62,0.26,1.26,0.37,1.89h0.02c0.12-0.63,0.31-1.28,0.48-1.88l0.76-2.66h1.2
	l0.73,2.59c0.18,0.68,0.34,1.32,0.47,1.95h0.02c0.09-0.63,0.23-1.27,0.38-1.95l0.65-2.59h1.45l-1.83,5.84h-1.37l-0.7-2.38
	c-0.18-0.61-0.31-1.16-0.44-1.87h-0.02c-0.12,0.72-0.28,1.29-0.44,1.87l-0.74,2.38h-1.38l-1.73-5.84H96.23z"/>
<path fill="#FFFFFF" d="M107.54,46.35l-0.1-0.65h-0.04c-0.36,0.46-0.97,0.78-1.73,0.78c-1.17,0-1.83-0.85-1.83-1.74
	c0-1.48,1.31-2.22,3.47-2.21v-0.1c0-0.38-0.16-1.02-1.19-1.02c-0.58,0-1.17,0.18-1.57,0.43l-0.29-0.96
	c0.43-0.26,1.19-0.52,2.11-0.52c1.87,0,2.41,1.19,2.41,2.46v2.11c0,0.53,0.02,1.04,0.08,1.4H107.54z M107.35,43.49
	c-1.04-0.02-2.04,0.21-2.04,1.09c0,0.58,0.37,0.84,0.84,0.84c0.59,0,1.02-0.38,1.15-0.8c0.04-0.11,0.05-0.23,0.05-0.32V43.49z"/>
<path fill="#FFFFFF" d="M111.16,40.51l1.06,3.13c0.12,0.36,0.24,0.8,0.32,1.14h0.04c0.09-0.33,0.2-0.77,0.31-1.15l0.91-3.12h1.58
	l-1.46,3.98c-0.8,2.18-1.34,3.15-2.04,3.75c-0.58,0.52-1.18,0.71-1.55,0.76l-0.34-1.25c0.25-0.06,0.56-0.19,0.86-0.41
	c0.28-0.18,0.6-0.53,0.8-0.92c0.06-0.11,0.1-0.19,0.1-0.26c0-0.06-0.01-0.14-0.08-0.29l-2.14-5.36H111.16z"/>
<polygon fill="#FFFFFF" points="118.78,38.27 123.44,38.27 123.44,39.48 120.25,39.48 120.25,41.71 123.23,41.71 123.23,42.92 
	120.25,42.92 120.25,46.35 118.78,46.35 "/>
<path fill="#FFFFFF" d="M127.61,46.35l-0.1-0.65h-0.04c-0.36,0.46-0.97,0.78-1.73,0.78c-1.17,0-1.83-0.85-1.83-1.74
	c0-1.48,1.31-2.22,3.47-2.21v-0.1c0-0.38-0.16-1.02-1.19-1.02c-0.58,0-1.18,0.18-1.57,0.43l-0.29-0.96
	c0.43-0.26,1.19-0.52,2.11-0.52c1.87,0,2.41,1.19,2.41,2.46v2.11c0,0.53,0.02,1.04,0.08,1.4H127.61z M127.42,43.49
	c-1.04-0.02-2.04,0.21-2.04,1.09c0,0.58,0.37,0.84,0.84,0.84c0.59,0,1.02-0.38,1.15-0.8c0.04-0.11,0.05-0.23,0.05-0.32V43.49z"/>
<path fill="#FFFFFF" d="M130.42,42.25c0-0.67-0.01-1.24-0.05-1.74h1.27l0.06,0.86h0.04c0.29-0.46,0.82-0.99,1.8-0.99
	c0.77,0,1.37,0.43,1.62,1.08h0.02c0.2-0.32,0.44-0.56,0.72-0.73c0.32-0.23,0.7-0.35,1.18-0.35c0.97,0,1.96,0.66,1.96,2.53v3.44
	h-1.44v-3.23c0-0.97-0.34-1.55-1.04-1.55c-0.5,0-0.88,0.36-1.03,0.78c-0.03,0.14-0.07,0.32-0.07,0.49v3.5H134v-3.38
	c0-0.82-0.32-1.39-1.01-1.39c-0.55,0-0.92,0.43-1.06,0.84c-0.06,0.14-0.08,0.31-0.08,0.48v3.46h-1.44V42.25z"/>
<path fill="#FFFFFF" d="M142.17,38.88c0,0.44-0.32,0.79-0.84,0.79c-0.49,0-0.82-0.35-0.82-0.79c0-0.46,0.34-0.8,0.83-0.8
	C141.84,38.07,142.15,38.42,142.17,38.88 M140.59,40.51h1.49v5.84h-1.49V40.51z"/>
<rect x="143.67" y="37.83" fill="#FFFFFF" width="1.49" height="8.52"/>
<path fill="#FFFFFF" d="M147.67,40.51l1.06,3.13c0.12,0.36,0.24,0.8,0.32,1.14h0.04c0.09-0.33,0.2-0.77,0.31-1.15l0.91-3.12h1.58
	l-1.46,3.98c-0.8,2.18-1.34,3.15-2.04,3.75c-0.58,0.52-1.18,0.71-1.55,0.76l-0.34-1.25c0.25-0.06,0.56-0.19,0.86-0.41
	c0.28-0.18,0.6-0.53,0.8-0.92c0.06-0.11,0.1-0.19,0.1-0.26c0-0.06-0.01-0.14-0.08-0.29l-2.14-5.36H147.67z"/>
</svg>
